<svg width="100" height="100" viewBox="0 0 100 100" fill="none" xmlns="http://www.w3.org/2000/svg">
<g clip-path="url(#clip0_13_288)">
<path fill-rule="evenodd" clip-rule="evenodd" d="M49.9999 66.6667C59.2045 66.6667 66.6666 59.2046 66.6666 50C66.6666 40.7953 59.2045 33.3333 49.9999 33.3333C40.7952 33.3333 33.3333 40.7953 33.3333 50C33.3333 59.2046 40.7952 66.6667 49.9999 66.6667ZM49.9999 58.7363C45.1749 58.7363 41.2637 54.825 41.2637 50C41.2637 45.175 45.1749 41.2638 49.9999 41.2638C54.8249 41.2638 58.7362 45.175 58.7362 50C58.7362 54.825 54.8249 58.7363 49.9999 58.7363Z" fill="white"/>
<path d="M29.1666 50C29.1666 52.3013 27.3011 54.1667 24.9999 54.1667C22.6988 54.1667 20.8333 52.3013 20.8333 50C20.8333 47.6988 22.6988 45.8333 24.9999 45.8333C27.3011 45.8333 29.1666 47.6988 29.1666 50Z" fill="white"/>
<path d="M74.9999 54.1667C77.3012 54.1667 79.1666 52.3013 79.1666 50C79.1666 47.6988 77.3012 45.8333 74.9999 45.8333C72.6987 45.8333 70.8333 47.6988 70.8333 50C70.8333 52.3013 72.6987 54.1667 74.9999 54.1667Z" fill="white"/>
<path fill-rule="evenodd" clip-rule="evenodd" d="M87.5 20.8333C94.4037 20.8333 100 26.4298 100 33.3333V66.6667C100 73.5704 94.4037 79.1667 87.5 79.1667H12.5C5.59646 79.1667 0 73.5704 0 66.6667V33.3333C0 26.4298 5.59646 20.8333 12.5 20.8333H87.5ZM16.6667 29.1667H83.3333C83.3333 30.261 83.5487 31.3447 83.9675 32.3557C84.3867 33.3668 85.0004 34.2854 85.7742 35.0592C86.5479 35.833 87.4667 36.4469 88.4775 36.8657C89.4887 37.2845 90.5725 37.5 91.6667 37.5V62.5C90.5725 62.5 89.4887 62.7154 88.4775 63.1342C87.4667 63.5533 86.5479 64.1671 85.7742 64.9408C85.0004 65.7146 84.3867 66.6333 83.9675 67.6442C83.5487 68.6554 83.3333 69.7392 83.3333 70.8333H16.6667C16.6667 69.7392 16.4511 68.6554 16.0323 67.6442C15.6135 66.6333 14.9997 65.7146 14.2259 64.9408C13.4521 64.1671 12.5334 63.5533 11.5224 63.1342C10.5113 62.7154 9.42767 62.5 8.33333 62.5V37.5C9.42767 37.5 10.5113 37.2845 11.5224 36.8657C12.5334 36.4469 13.4521 35.833 14.2259 35.0592C14.9997 34.2854 15.6135 33.3668 16.0323 32.3557C16.4511 31.3447 16.6667 30.261 16.6667 29.1667Z" fill="white"/>
</g>
<defs>
<clipPath id="clip0_13_288">
<rect width="100" height="100" fill="white"/>
</clipPath>
</defs>
</svg>
