<svg width="100" height="100" viewBox="0 0 100 100" fill="none" xmlns="http://www.w3.org/2000/svg">
<path d="M49.7063 24.2187V46.2906C49.7063 47.2687 50.0969 48.1469 50.7812 48.9281C51.3687 49.6125 52.3437 50.0031 53.4187 50.0031H75.3906C78.5156 50.0031 79.2969 48.3437 77.05 46.0969L70.1156 38.9687L81.6406 27.4437C81.9344 27.0531 82.2281 26.5656 82.2281 26.075C82.2281 25.5844 81.9344 25.1969 81.6406 24.8062L74.9031 18.0687C74.5125 17.6781 74.1219 17.4812 73.5344 17.4812C73.0469 17.4812 72.5563 17.6781 72.1656 18.0687L60.5437 29.6906L53.6094 22.6594C51.3625 20.4125 49.7031 21.1937 49.7031 24.2219L49.7063 24.2187ZM17.675 75.1969L24.5125 81.9344C24.9031 82.2281 25.2938 82.5219 25.8813 82.5219C26.3688 82.5219 26.7594 82.2281 27.15 81.9344L38.7719 70.3125L45.8031 77.2469C48.05 79.4937 49.7094 78.8094 49.7094 75.7812V53.7094C49.7094 51.8531 48.1469 49.9969 45.9969 49.9969H24.025C20.9 49.9969 20.0219 51.6562 22.2656 53.9031L29.2969 60.9344L17.675 72.4594C17.3813 72.85 17.1875 73.4375 17.1875 73.925C17.1875 74.4125 17.3844 74.8062 17.675 75.1969Z" fill="white"/>
</svg>
