<svg width="100" height="100" viewBox="0 0 100 100" fill="none" xmlns="http://www.w3.org/2000/svg">
<g clip-path="url(#clip0_13_244)">
<path d="M100 50.0013C100 22.3848 77.614 0.000808716 50.0007 0.000808716C22.3862 0.000808716 0 22.3846 0 50.0013C0 77.6136 22.386 99.9994 50.0007 99.9994C77.614 99.9992 100 77.6134 100 50.0013Z" fill="#F27500"/>
<path d="M52.2881 25.983C51.6011 25.6099 50.7646 25.6428 50.1088 26.0687L30.9341 38.5225H23.8469C22.6688 38.5225 21.7139 39.4775 21.7139 40.6553V59.3445C21.7139 60.5225 22.6688 61.4775 23.8469 61.4775H30.9341L50.1088 73.9311C50.4611 74.1599 50.8654 74.2754 51.2707 74.2754C51.62 74.2754 51.9703 74.1895 52.2883 74.0168C52.9756 73.6435 53.4037 72.9244 53.4037 72.1422V27.8578C53.4035 27.0758 52.9754 26.3561 52.2881 25.983Z" fill="white"/>
<path d="M71.6312 49.9999L77.7551 43.8761C78.4635 43.1674 78.4635 42.0192 77.7551 41.3105C77.0466 40.6023 75.8982 40.6023 75.1898 41.3105L69.0659 47.4346L62.9421 41.3105C62.2337 40.6023 61.0852 40.6023 60.3768 41.3105C59.6683 42.0192 59.6683 43.1674 60.3768 43.8761L66.5008 49.9999L60.377 56.1237C59.6686 56.8324 59.6686 57.9806 60.377 58.6892C60.7311 59.0434 61.1955 59.2205 61.6596 59.2205C62.1238 59.2205 62.588 59.0434 62.9423 58.6892L69.0661 52.5652L75.19 58.6892C75.5441 59.0434 76.0085 59.2205 76.4726 59.2205C76.9368 59.2205 77.401 59.0434 77.7553 58.6892C78.4637 57.9806 78.4637 56.8324 77.7553 56.1237L71.6312 49.9999Z" fill="white"/>
</g>
<defs>
<clipPath id="clip0_13_244">
<rect width="100" height="100" fill="white"/>
</clipPath>
</defs>
</svg>
