<svg width="80" height="80" viewBox="0 0 80 80" fill="none" xmlns="http://www.w3.org/2000/svg">
<path d="M30.4667 40H49.5667V49.5333C49.5671 51.199 48.9146 52.7985 47.7493 53.9888C46.584 55.179 44.9987 55.8651 43.3334 55.9H36.6667C34.9782 55.9 33.3588 55.2292 32.1648 54.0352C30.9708 52.8413 30.3 51.2219 30.3 49.5333V40H30.4667Z" stroke="white" stroke-width="6.36667" stroke-miterlimit="10"/>
<path d="M46.3666 27.2667V39.9667H33.6333V27.2667" stroke="white" stroke-width="6.36667" stroke-miterlimit="10"/>
<path d="M40 55.9V67.9333C39.9867 68.8684 40.1828 69.7945 40.5739 70.6439C40.9651 71.4933 41.5414 72.2444 42.2605 72.8421C42.9797 73.4399 43.8236 73.869 44.7302 74.0982C45.6368 74.3274 46.5832 74.3508 47.5 74.1667C55.0815 72.4949 61.8911 68.3476 66.8553 62.3784C71.8194 56.4092 74.6559 48.9576 74.9174 41.1984C75.179 33.4392 72.8509 25.8135 68.3 19.5236C63.7491 13.2336 57.2343 8.63705 49.7826 6.4585C42.3309 4.27995 34.366 4.6433 27.1436 7.49128C19.9212 10.3393 13.852 15.5099 9.89272 22.1881C5.93344 28.8663 4.30927 36.6722 5.27623 44.3754C6.2432 52.0786 9.74632 59.2409 15.2334 64.7333" stroke="white" stroke-width="6.36667" stroke-miterlimit="10"/>
</svg>
