<svg width="86" height="76" viewBox="0 0 86 76" fill="none" xmlns="http://www.w3.org/2000/svg">
<path d="M43.0007 21.7725L47.4573 32.0584L57.7964 33.0177L50.2025 40.9231L52.1455 51.209L43.0007 46.4125L33.8559 51.209L35.799 40.9231L28.2051 33.0177L38.5442 32.0584L43.0007 21.7725Z" stroke="#FF5100" stroke-width="4" stroke-miterlimit="10"/>
<path d="M43.0003 73.0598C30.5577 73.0598 19.5946 66.6999 13.2129 57.0713" stroke="#FF5100" stroke-width="4" stroke-miterlimit="10"/>
<path d="M12.125 19.765C18.275 9.14152 29.8085 2 42.9998 2" stroke="#FF5100" stroke-width="4" stroke-miterlimit="10"/>
<path d="M19.8261 53.5183H2V23.3179H19.8261" stroke="#FF5100" stroke-width="4" stroke-miterlimit="10"/>
<path d="M43.0009 64.1777C57.7685 64.1777 69.74 52.2472 69.74 37.5303C69.74 22.8133 57.7685 10.8828 43.0009 10.8828C28.2332 10.8828 16.2617 22.8133 16.2617 37.5303C16.2617 52.2472 28.2332 64.1777 43.0009 64.1777Z" stroke="#FF5100" stroke-width="4" stroke-miterlimit="10"/>
<path d="M43 73.0598C55.4426 73.0598 66.4057 66.6999 72.7874 57.0713" stroke="#FF5100" stroke-width="4" stroke-miterlimit="10"/>
<path d="M73.8748 19.765C67.7248 9.14152 56.1913 2 43 2" stroke="#FF5100" stroke-width="4" stroke-miterlimit="10"/>
<path d="M66.1738 53.5183H83.9999V23.3179H66.1738" stroke="#FF5100" stroke-width="4" stroke-miterlimit="10"/>
</svg>
